<svg width="44" height="44" viewBox="0 0 44 44" fill="none" xmlns="http://www.w3.org/2000/svg">
<path d="M0 22C0 9.84974 9.84974 0 22 0C34.1503 0 44 9.84974 44 22C44 34.1503 34.1503 44 22 44C9.84974 44 0 34.1503 0 22Z" fill="#DECDC3"/>
<path d="M15.6629 19.0782L16.3879 20.3448C16.8495 21.1532 17.0795 21.5565 17.0795 21.9998C17.0795 22.4432 16.8495 22.8465 16.3879 23.6532L15.6629 24.9215C13.5995 28.5332 12.5679 30.3382 13.3712 31.2348C14.1762 32.1298 16.0829 31.2965 19.8929 29.6298L30.3529 25.0532C33.3445 23.7448 34.8412 23.0898 34.8412 21.9998C34.8412 20.9098 33.3445 20.2548 30.3529 18.9465L19.8929 14.3698C16.0829 12.7032 14.1762 11.8698 13.3712 12.7648C12.5662 13.6598 13.5995 15.4648 15.6629 19.0782Z" fill="#7D6E65"/>
</svg>
